PathFileType	4	(X/Y/Z)	E:\Qualisys_Data\Carbon_Farble_Plate\Data\Amateur_Runner\S14\T3\S14T3V13_c3d.trc
DataRate	CameraRate	NumFrames	NumMarkers	Units	OrigDataRate	OrigDataStartFrame	OrigNumFrames
200.000000	200.000000	4	39	mm	200.000000	126	336
Frame#	Time	LSHO			RSHO			LICST			RICST			LASIS			LHEEL			RASIS			LTROC			RTROC			SACR			LTH1			LSK4			LTH2			LTH3			RHM5			LSK2			LTH4			RTH1			LTOE			RTH2			RTH3			RTH4			LLEP			RLEP			LSK1			LSK3			RSK1			LHM5			RSK2			LFT1			RSK3			RSK4			LLME			RLME			RTOE			RHEEL			RFT1			RFT2			LFT2			
		X1	Y1	Z1	X2	Y2	Z2	X3	Y3	Z3	X4	Y4	Z4	X5	Y5	Z5	X6	Y6	Z6	X7	Y7	Z7	X8	Y8	Z8	X9	Y9	Z9	X10	Y10	Z10	X11	Y11	Z11	X12	Y12	Z12	X13	Y13	Z13	X14	Y14	Z14	X15	Y15	Z15	X16	Y16	Z16	X17	Y17	Z17	X18	Y18	Z18	X19	Y19	Z19	X20	Y20	Z20	X21	Y21	Z21	X22	Y22	Z22	X23	Y23	Z23	X24	Y24	Z24	X25	Y25	Z25	X26	Y26	Z26	X27	Y27	Z27	X28	Y28	Z28	X29	Y29	Z29	X30	Y30	Z30	X31	Y31	Z31	X32	Y32	Z32	X33	Y33	Z33	X34	Y34	Z34	X35	Y35	Z35	X36	Y36	Z36	X37	Y37	Z37	X38	Y38	Z38	X39	Y39	Z39	

127	0.63	-828.5209350585938	1345.411010742188	-514.7447509765625	-757.7822875976562	1368.043823242188	-209.0904083251953	-890.45703125	933.3297729492188	-459.5774841308594	-842.2561645507812	930.5071411132812	-180.6324005126953	-843.4639282226562	889.22412109375	-440.3757019042969	-1025.0732421875	99.01789855957033	-313.7717590332031	-821.8204956054688	885.462890625	-201.3003234863281	-968.4491577148438	817.378173828125	-472.1258544921875	-961.4110107421876	808.7021484375	-140.2928924560547	-1007.022766113281	938.3746337890624	-313.6879577636719	-827.2322387695312	609.6735229492188	-471.2134704589844	-914.7301025390624	279.3395080566406	-403.7171630859375	-895.5040283203125	585.9589233398438	-442.4570007324219	-782.9599609375	523.7163696289062	-442.7206420898438	-1267.746704101562	212.6846923828125	-162.4438629150391	-874.1150512695312	365.5989379882812	-431.5013122558594	-855.0225219726562	499.0919494628906	-422.0264282226562	-806.5763549804688	598.5001831054688	-150.6487274169922	-767.5581665039062	69.80377960205078	-351.6404418945312	-882.6524047851562	594.24169921875	-132.4732818603516	-799.1847534179688	498.6590881347656	-168.8119201660156	-882.1102905273438	492.5158996582031	-147.3621215820312	-804.1520385742188	438.4577941894531	-435.228515625	-862.5850219726562	433.844482421875	-156.6559753417969	-797.890869140625	334.2914428710938	-421.7377624511719	-841.9647827148438	244.9735717773438	-398.3685913085938	-953.5316162109376	365.9948120117188	-156.9654998779297	-840.4767456054688	66.1921157836914	-411.8282775878906	-981.8494873046876	446.8789978027344	-150.0217437744141	-1016.890869140625	66.87089538574219	-291.0335083007812	-1053.314697265625	341.5005798339844	-176.9848022460938	-1071.161499023438	417.8320617675781	-169.3775177001953	-959.1010131835938	116.0390396118164	-374.9513854980469	-1224.74755859375	350.8005981445312	-196.0063323974609	-1243.835571289062	141.0312652587891	-224.8012847900391	-1261.615600585938	398.6594543457031	-256.4677124023438	-1286.530639648438	379.8773803710938	-283.4653015136719	-1281.9052734375	397.0975341796875	-232.6457672119141	-1029.270263671875	71.13835906982422	-343.3164367675781
128	0.635	-809.7372436523438	1344.818115234375	-514.5708618164062	-744.385498046875	1368.000122070312	-208.1815643310547	-875.1453857421875	933.4586181640624	-460.2032165527344	-828.2659912109375	930.3666381835938	-180.0389862060547	-827.3225708007812	888.3742065429688	-439.2235107421875	-1024.89501953125	99.72552490234376	-313.7095642089844	-806.9344482421875	885.4588012695312	-203.2217102050781	-955.0236206054688	818.1471557617188	-472.2998657226562	-946.7726440429688	807.9193115234375	-141.3421325683594	-992.0471801757812	938.805908203125	-314.4916687011719	-817.584716796875	607.8654174804688	-471.0868225097656	-910.8275756835938	279.1728515625	-404.12158203125	-886.2656860351562	585.305908203125	-442.6849975585938	-774.7883911132812	521.2982788085938	-442.9094543457031	-1237.736694335938	209.2191772460938	-162.5698547363281	-868.761962890625	365.2592163085938	-431.2417907714844	-847.3959350585938	497.4703979492188	-422.1224365234375	-785.2957153320312	600.61279296875	-150.5710144042969	-767.349609375	69.24798583984375	-351.5240783691406	-861.1168212890625	595.1414184570312	-132.3604583740234	-774.8003540039062	501.5004272460938	-169.2008819580078	-857.73486328125	493.0905456542969	-147.5762786865234	-797.19775390625	436.4658203125	-435.045654296875	-836.5947875976562	435.6949157714844	-157.1410980224609	-793.2772216796875	332.1828002929688	-421.5682373046875	-838.6245727539062	243.8570098876953	-398.5547180175781	-926.0577392578124	367.1552429199219	-156.8895721435547	-840.3825073242188	65.9561996459961	-411.8629150390625	-955.1090698242188	447.5733032226562	-150.5090179443359	-1016.56201171875	67.26821899414062	-290.8387145996094	-1025.786743164062	341.3992309570312	-176.9289398193359	-1044.817016601562	417.4657287597656	-169.4467315673828	-958.6726684570312	116.5817031860352	-374.9406127929688	-1197.46484375	348.0868835449219	-196.2503662109375	-1212.523803710938	138.4296112060547	-225.5444183349609	-1235.733154296875	395.9982299804688	-255.500244140625	-1260.227416992188	376.8564147949219	-282.3627319335938	-1255.880249023438	393.8251342773438	-231.3755340576172	-1029.279541015625	71.76604461669922	-343.2729187011719
129	0.64	-792.39794921875	1345.462890625	-514.39208984375	-730.8309936523438	1368.01123046875	-207.1014709472656	-862.2528076171875	934.1986694335938	-461.96826171875	-814.1863403320312	930.1305541992188	-180.2239685058594	-812.996337890625	888.109619140625	-439.6765747070312	-1024.82666015625	100.5929412841797	-313.8689575195312	-792.9338989257812	886.0576782226562	-203.2920227050781	-941.9592895507812	819.2235107421875	-472.1951293945312	-931.9563598632812	807.3155517578125	-142.2698516845703	-977.5374755859376	939.6803588867188	-315.2286376953125	-808.0711669921875	606.890625	-470.751220703125	-906.7252197265624	279.4839477539062	-404.4519958496094	-876.7267456054688	584.9622802734375	-443.0499267578125	-766.4613037109375	519.2391967773438	-443.1251831054688	-1206.76953125	206.0065612792969	-162.4521179199219	-863.3356323242188	364.5606689453125	-431.1649780273438	-839.5479736328125	496.6948547363281	-422.7324523925781	-762.7323608398438	604.2813110351562	-150.5889892578125	-767.374755859375	69.08757019042969	-351.1268615722656	-839.7180786132812	596.3663330078125	-132.5020294189453	-750.9224853515625	504.8286437988281	-169.9668273925781	-833.625	494.2809753417969	-147.7434387207031	-790.52392578125	435.0806274414062	-435.149169921875	-811.2030029296875	437.7782592773438	-157.5121154785156	-788.466796875	330.4079284667969	-421.4169921875	-835.6201782226562	242.702880859375	-398.0591125488281	-899.0460815429688	367.8462524414062	-157.8125610351562	-840.2703857421875	65.56058502197266	-411.7605590820312	-928.562744140625	447.6843566894531	-151.0248718261719	-1016.580200195312	68.07671356201172	-290.9111328125	-997.9725341796876	341.2257995605469	-176.9555511474609	-1017.871826171875	417.2475280761719	-169.4002838134766	-957.8739013671876	117.4053649902344	-375.036865234375	-1169.870361328125	345.3705749511719	-195.3129272460938	-1180.97705078125	135.5407562255859	-226.0214233398438	-1208.096557617188	390.6839904785156	-254.5528564453125	-1234.188110351562	373.2497253417969	-281.6519775390625	-1229.806762695312	390.0987548828125	-230.3589477539062	-1029.0849609375	72.37040710449219	-342.781005859375
130	0.645	-774.788818359375	1346.591552734375	-514.141845703125	-717.332763671875	1368.66162109375	-206.1246185302734	-844.09033203125	933.8349609375	-460.2887573242188	-800.1547241210938	930.4830932617188	-180.1021881103516	-798.2406005859375	887.8627319335938	-440.1217041015625	-1024.498413085938	101.6650924682617	-314.0610656738281	-778.5579833984375	886.5828247070312	-203.6377563476562	-928.8530883789062	820.1253662109375	-471.6173095703125	-917.0308227539062	806.8421020507812	-143.3069610595703	-962.5048217773438	940.7898559570312	-315.7306213378906	-798.2933959960938	606.051025390625	-471.3479919433594	-903.4284057617188	279.8826904296875	-404.80224609375	-867.1325073242188	585.6222534179688	-444.0792541503906	-757.8806762695312	517.9701538085938	-443.4451599121094	-1175.868286132812	201.90234375	-162.1688079833984	-858.3656616210938	364.2254638671875	-431.4768371582031	-831.7730102539062	496.7450256347656	-423.6565856933594	-741.76025390625	608.2551879882812	-150.5988616943359	-767.2316284179688	68.77332305908203	-351.3736572265625	-818.7847290039062	597.887451171875	-133.1416931152344	-726.9490356445312	509.5059509277344	-170.5921783447266	-808.5902709960938	497.0328979492188	-148.8963775634766	-784.1884155273438	433.5960083007812	-435.3201904296875	-785.7593994140625	440.396728515625	-158.0800018310547	-783.972412109375	329.0792541503906	-421.2884521484375	-832.5208740234375	242.077880859375	-397.9393310546875	-871.854736328125	369.3874206542969	-158.2544097900391	-840.07080078125	65.35639953613281	-411.7509460449219	-902.4439086914062	448.7607116699219	-151.7389068603516	-1016.732727050781	69.61019897460938	-290.9881896972656	-970.7862548828124	341.1091003417969	-177.5279541015625	-991.4537353515624	416.9117126464844	-169.8878784179688	-957.1724853515624	117.9371490478516	-375.0271301269531	-1142.4033203125	342.7907104492188	-194.9485168457031	-1148.739135742188	132.7541198730469	-226.5168151855469	-1182.004638671875	387.7358093261719	-253.0987091064453	-1207.898681640625	369.4252014160156	-280.9867553710938	-1204.11376953125	385.3711547851562	-230.4302673339844	-1028.900634765625	73.22806549072266	-343.0617065429688
